<svg xmlns="http://www.w3.org/2000/svg">
  <style>:root svg:not(:target) { display: none }</style>

  <svg id="mobile" viewBox="0 0 32 36">
  <path fill="none" fill-rule="evenodd" clip-rule="evenodd" d="M32 18C32 20.8737 31.4014 23.5901 30.3369 26H17C19.4627 22.2281 22 17.6606 22 13C22 7.00236 17.9385 1.95335 12.4158 0.453392C13.5681 0.156712 14.7678 0 16 0C24.8366 0 32 8.05888 32 18ZM18 13C18 8.02944 13.9706 4 9 4C2.34935 4 0 12.5071 0 18C0 27.9411 7.16344 36 16 36C20.7387 36 24.9962 33.6825 27.9259 30H9C9.35183 29.5514 9.72025 29.0891 10.0987 28.6142C13.6157 24.2012 18 18.6997 18 13Z" fill="#7859CF"/>
  </svg>
  <svg id="tablet" fill="none" viewBox="0 0 82 36">
  <path fill="#333" d="M76.94 17.24h4.2v6.96c-.96.69-2.07 1.22-3.32 1.58-1.24.37-2.5.56-3.74.56a10.1 10.1 0 0 1-4.75-1.1 8.41 8.41 0 0 1-4.51-7.64c0-1.68.4-3.18 1.2-4.51a8.2 8.2 0 0 1 3.33-3.1 10.17 10.17 0 0 1 4.83-1.13c1.56 0 2.97.27 4.22.8a8.14 8.14 0 0 1 3.12 2.28l-3.02 2.73a5.33 5.33 0 0 0-4.08-1.87 4.7 4.7 0 0 0-3.48 1.32 4.66 4.66 0 0 0-1.32 3.48c0 .93.2 1.76.6 2.5.4.72.96 1.28 1.68 1.7a5 5 0 0 0 2.47.6c.91 0 1.77-.18 2.57-.55v-4.61Z"/><path fill="#7859CF" fill-rule="evenodd" d="M58 18c0 2.87-.6 5.59-1.66 8H43c2.46-3.77 5-8.34 5-13A13 13 0 0 0 38.42.45C39.57.15 40.77 0 42 0c8.84 0 16 8.06 16 18Zm-14-5a9 9 0 0 0-9-9c-6.65 0-9 8.5-9 14 0 9.94 7.16 18 16 18 4.74 0 9-2.32 11.93-6H35l1.1-1.39C39.62 24.21 44 18.7 44 13Z" clip-rule="evenodd"/><path fill="#333" d="M1.85 9.2H9.8c1.84 0 3.47.34 4.9 1.03a7.77 7.77 0 0 1 3.3 2.93 8.25 8.25 0 0 1 1.18 4.44 7.77 7.77 0 0 1-4.49 7.37A11.12 11.12 0 0 1 9.8 26H1.86V9.2Zm7.75 13c1.44 0 2.6-.4 3.46-1.22a4.39 4.39 0 0 0 1.32-3.38c0-1.44-.44-2.57-1.32-3.38a4.83 4.83 0 0 0-3.46-1.23h-3v9.22h3Z"/>
  </svg>
  <svg id="desctop" fill="none" viewBox="0 0 170 36"><path fill="#333" d="M140.08 26.34c-1.33 0-2.56-.21-3.7-.63a8.82 8.82 0 0 1-2.95-1.82 8.56 8.56 0 0 1-2.61-6.29 8.62 8.62 0 0 1 2.64-6.29 8.52 8.52 0 0 1 2.95-1.8c1.15-.43 2.4-.65 3.77-.65 1.58 0 3 .27 4.24.8a7.94 7.94 0 0 1 3.1 2.28l-3.02 2.73a5.83 5.83 0 0 0-1.88-1.39 5.52 5.52 0 0 0-4.18-.14 4.5 4.5 0 0 0-2.5 2.5 5.4 5.4 0 0 0-.32 1.96 4.77 4.77 0 0 0 1.32 3.48 4.56 4.56 0 0 0 3.43 1.32c.7 0 1.39-.11 2.06-.34a7 7 0 0 0 2.04-1.2l2.67 3.34a10.9 10.9 0 0 1-3.34 1.58c-1.26.37-2.5.56-3.72.56Zm2.86-2.76v-6.34h4.2v6.96l-4.2-.62Zm16.16 2.76c-1.34 0-2.58-.22-3.72-.65a9.1 9.1 0 0 1-2.97-1.83 8.56 8.56 0 0 1-2.64-6.26 8.39 8.39 0 0 1 2.64-6.24 8.9 8.9 0 0 1 2.97-1.85c1.14-.43 2.38-.65 3.72-.65 1.36 0 2.6.22 3.72.65a8.63 8.63 0 0 1 0 16.18c-1.12.43-2.36.65-3.72.65Zm0-3.94c.64 0 1.23-.11 1.78-.34a4.06 4.06 0 0 0 1.44-.96 5.2 5.2 0 0 0 1.32-3.5 5.08 5.08 0 0 0-1.32-3.48c-.4-.43-.88-.76-1.44-.98a4.8 4.8 0 0 0-3.58 0 4.2 4.2 0 0 0-1.44.98 4.7 4.7 0 0 0-1.3 3.48 5 5 0 0 0 1.3 3.5 4.37 4.37 0 0 0 3.24 1.3Z"/><path fill="#7859CF" fill-rule="evenodd" d="M124 18c0 2.87-.6 5.59-1.66 8H109c2.46-3.77 5-8.34 5-13A13 13 0 0 0 104.42.45C105.57.15 106.77 0 108 0c8.84 0 16 8.06 16 18Zm-14-5a9 9 0 0 0-9-9c-6.65 0-9 8.5-9 14 0 9.94 7.16 18 16 18 4.74 0 9-2.32 11.93-6H101l1.1-1.39c3.52-4.4 7.9-9.91 7.9-15.61Z" clip-rule="evenodd"/><path fill="#333" d="M2.65 26V9.2h7.94c1.86 0 3.5.34 4.9 1.03 1.4.69 2.5 1.66 3.29 2.9a8.1 8.1 0 0 1 1.2 4.47c0 1.71-.4 3.2-1.2 4.46a7.86 7.86 0 0 1-3.29 2.9c-1.4.7-3.04 1.04-4.9 1.04H2.65Zm4.75-3.8h3c.96 0 1.8-.17 2.5-.52.72-.37 1.28-.9 1.68-1.58.4-.7.6-1.54.6-2.5 0-.98-.2-1.8-.6-2.5-.4-.68-.96-1.2-1.68-1.56a5.32 5.32 0 0 0-2.5-.55h-3v9.22ZM22.96 26V9.2h7.68c1.53 0 2.85.25 3.96.74a5.77 5.77 0 0 1 2.6 2.16c.6.93.9 2.04.9 3.32 0 1.26-.3 2.36-.9 3.28a5.89 5.89 0 0 1-2.6 2.12 9.9 9.9 0 0 1-3.96.72H25.6l2.11-2V26h-4.75Zm10.4 0-4.19-6.12h5.07l4.2 6.12h-5.09Zm-5.65-5.95-2.11-2.19h4.75c1 0 1.73-.21 2.2-.64.5-.44.75-1.04.75-1.8 0-.79-.25-1.4-.74-1.83-.48-.43-1.22-.65-2.2-.65H25.6l2.11-2.18v9.29ZM41.21 26V9.2h4.75V26H41.2Zm8.6 0V9.2h3.92l9.26 11.18h-1.84V9.2h4.65V26H61.9l-9.26-11.18h1.84V26h-4.65Zm24.07-3.72-.26-5.33 7.22-7.75h5.23l-7.2 7.8-2.64 2.76-2.35 2.52ZM69.63 26V9.2h4.7V26h-4.7Zm11.28 0-5.47-6.94 3.1-3.3L86.44 26H80.9Z"/>
  </svg>
</svg>
